<?xml version="1.0" standalone="no"?>
<!DOCTYPE svg PUBLIC "-//W3C//DTD SVG 20010904//EN"
 "http://www.w3.org/TR/2001/REC-SVG-20010904/DTD/svg10.dtd">
<svg version="1.0" xmlns="http://www.w3.org/2000/svg"
 width="319.000000pt" height="319.000000pt" viewBox="0 0 319.000000 319.000000"
 preserveAspectRatio="xMidYMid meet">
<metadata>
Created by potrace 1.11, written by Peter Selinger 2001-2013
</metadata>
<g transform="translate(0.000000,319.000000) scale(0.100000,-0.100000)"
fill="#000000" stroke="none">
<path d="M1387 3075 c-484 -66 -927 -389 -1138 -830 -57 -119 -92 -221 -122
-353 -31 -142 -31 -441 2 -592 69 -323 210 -575 447 -799 198 -187 440 -315
715 -376 101 -23 393 -31 512 -15 204 27 454 122 624 237 324 218 553 557 638
943 26 116 31 380 11 517 -58 393 -272 751 -593 991 -304 228 -707 330 -1096
277z m476 -326 c231 -47 418 -149 593 -323 228 -228 345 -512 346 -841 2 -492
-309 -932 -780 -1104 -146 -53 -222 -66 -402 -66 -180 0 -256 13 -402 66 -171
62 -295 143 -433 283 -145 146 -242 304 -294 481 -110 375 -43 751 186 1057
279 370 729 540 1186 447z"/>
<path d="M1533 2297 c-60 -22 -117 -72 -148 -128 l-30 -54 -3 -281 c-3 -264
-2 -284 18 -336 37 -99 148 -178 250 -178 64 0 132 31 184 83 80 81 86 108 86
411 0 292 -6 326 -72 401 -73 83 -190 117 -285 82z m167 -99 c35 -18 51 -35
73 -77 l27 -55 0 -248 c0 -266 -4 -294 -53 -347 -28 -30 -93 -60 -131 -61 -41
0 -117 45 -146 87 -25 36 -25 38 -28 302 -3 223 -1 271 13 306 39 102 146 143
245 93z"/>
<path d="M1212 1628 c-25 -25 -4 -155 39 -240 27 -53 112 -143 164 -173 22
-13 66 -31 98 -40 l57 -16 0 -122 c0 -134 12 -171 53 -165 36 5 47 44 47 170
l0 117 58 16 c152 44 272 179 303 342 14 77 7 111 -26 119 -37 9 -52 -9 -59
-74 -13 -117 -88 -226 -191 -280 -43 -23 -62 -27 -135 -27 -70 0 -94 5 -135
25 -101 49 -167 144 -189 268 -6 37 -15 73 -19 80 -10 15 -49 16 -65 0z"/>
</g>
</svg>
